<?xml version="1.0" encoding="UTF-8"?>
<svg id="_圖層_2" data-name="圖層 2" xmlns="http://www.w3.org/2000/svg" width="359.7" height="87.61" xmlns:xlink="http://www.w3.org/1999/xlink" viewBox="0 0 359.7 87.61">
  <defs>
    <filter id="drop-shadow-1" filterUnits="userSpaceOnUse">
      <feOffset dx="0" dy="0"/>
      <feGaussianBlur result="blur" stdDeviation="3.6"/>
      <feFlood flood-color="#000" flood-opacity=".66"/>
      <feComposite in2="blur" operator="in"/>
      <feComposite in="SourceGraphic"/>
    </filter>
  </defs>
  <g id="_第一cut" data-name="第一cut">
    <g id="logo" style="filter: url(#drop-shadow-1);">
      <path d="m26.96,1.52l-.2.29-.65.86h0l-.22.29h0l-.28.36h0l-.3.42h0l-.28.36-.58.78-.44.58-1.07,1.43-.23.3v.07l-.17.2v.07l-.29.37-1.08,1.27-.22.3h0l-.59.78-.56.77-.26.4h-.07l-.22.28-1.8,2.4h0l-.5.66h0l-.54.72h0l-.55.74-.08.12-.71.89-.22.35h13.33l-.6.92v.07l-.38.49v.07l-.14.23h0l-.22.29h0l-.65.86-.71.92-.37.5-.34.54-.36.5-.85,1.2-.22.29-.58.79v.07l-.29.36-.22.29-.36.49-.22.29-.58.79h0l-.44.58-.13.19-1.76,2.16-.38.49-.22.29-.85,1.2-.28.36h0l-.58.79h0l-.65.85h0l-.23.29-.44.56c-.06.11-.12.22-.17.32h13.31v11.5c0,.54.07.48-.47.48H3.18V.02h.07c.15.04.29.06.44.07h22.8c.44,0,.88,0,1.31.07l-.42.74v.11h0l-.43.5Z" style="fill: #fff; stroke-width: 0px;"/>
      <path d="m53.86,28.49h0l.36-.2.78-.44.86-.65h0l.72-.68,1.99-2.4.36-.55.41-.94.46-1.08.37-1.62v-.37h.06l.1-1.86h-14.49l-.86.12-2.4.66-.86.35h0l-.22.13-1.01.59-1.58,1.2-.07.12-.54.53h0l-.22.24-.55.58-.8,1.2c.11.3-.12.4-.29.52l-.62,1.2-.14.42-.3,1.2-.13.65-.08.56v.78q0,.73.78.73h12.63l-.16-.11h.16c-.13-.04-.26-.06-.4-.07h-12.71v-.07h12.72c.16.01.32.05.47.1h-.07v.38h.22l.96-.07,1.85-.29h0l.38-.12.28-.08,1.61-.64Z" style="fill: #fff; stroke-width: 0px;"/>
      <path d="m55.99,44.98l-.43.41-.73.48h0l-1.2.65h0l-.84.37h0l-2.16.62h-.13l-.86.13h-14.61v-.55l.41-2.52.3-1,.11-.37h0l1.66-2.87.23-.28.31-.37,1.2-1.2.08-.08.37-.26.34-.24.59-.41,2.74-1.28h.12l1-.22.36-.07.37-.12h.72c.07,0,.16.12.24.13h13.75c.19,0,.37.11.47.28v.36l-.13,1.01-.06.36h0l-.14.66v.25c-.12.35-.23.68-.34,1.02-.01.02-.01.05,0,.07l-.3.72-.13.24-.52.96-.41.67h0l-.36.49-.52.65-1.49,1.31Z" style="fill: #fff; stroke-width: 0px;"/>
      <path d="m41.17,1.18l1.37-.64h.22l.35-.11.44-.19.42-.1.84-.14h1.39-.37,1.02v.07h-.46v.07h13.2c.14-.01.27-.04.41-.07h0c.22,0,.31,0,.3.28s0,.59,0,.89l-.13.98-.08.36-.3,1.28h0l-.23.59-.08.32-.34.59v.13l-.5.92-.61.8-.38.48-.48.6h0l-1.08,1-.24.2h0l-.58.42-.43.29-.22.13s-.05,0-.07,0l-.43.25h0l-.3.14h-.13l-.2.1-.14.07-1.58.56h0l-.65.13-.49.08-.85.13s-.07-.11-.1-.11h-13.8c-.14.01-.27.04-.41.07h-.28v-.72l.08-1.27c.1-.41.19-.82.28-1.2,0-.02,0-.05,0-.07l.5-1.43.34-.72.23-.42h0m.06,0l.22-.37h0l.42-.65.36-.42.49-.58.23-.23.42-.49h0l.72-.62h0l.58-.46-3.43,3.82Z" style="fill: #fff; stroke-width: 0px;"/>
      <path d="m35.37,10.2h-.07v.18h.06c0-.06,0-.12.01-.18Z" style="fill: #fff; stroke-width: 0px;"/>
      <path d="m64.93,36.25c-.08-.41.14-.65.67-.73,1.26-.53,2.32-1.28,3.17-2.26l.06-4.15c.16-1.38.26-2.81.31-4.27,0-.28-.11-.43-.34-.43s-.46.02-.7.06l-1.65.73c-.57.24-.88.04-.92-.61-.2-.45-.02-.73.55-.85.49-.12.83-.2,1.04-.24.33-.12.61-.18.85-.18l1.1-.31c.32-2.16.49-4.33.49-6.53l-.85.18c-.24.04-.49.06-.73.06-.12,0-.43-.03-.92-.09-.49-.06-.77-.09-.85-.09,0-.12-.04-.24-.12-.37-.16-.53.1-.81.79-.85.33.12.67.13,1.04.03.37-.1.69-.13.98-.09.12,0,.43,0,.92-.03.49-.02.81-.05.98-.09h1.53s.31-.02.79-.06c.49-.04.77-.06.85-.06.81.04,1.63,0,2.44-.12.32,0,.67-.02,1.04-.06.37-.04.71-.06,1.04-.06h.49c.28.16.33.35.12.55.16.24.14.49-.06.73-.24.12-.53.14-.85.06-.65-.08-1.26-.02-1.83.18-.2.69-.28,1.42-.24,2.2-.04.9-.06,1.79-.06,2.69.65-.08,1.28-.24,1.89-.49.45.08.67.37.67.85-.53.33-1.14.57-1.83.73-.61.12-.96.47-1.04,1.04l-.06,7.02c.57-.28,1.16-.53,1.77-.73.69-.45,1.46-.79,2.32-1.04.24.08.45.06.61-.06.33.24.39.51.18.79l-13.18,9.95c-.24.24-.49.37-.73.37-.49-1.1-1.06-2.22-1.71-3.36Zm1.77,1.16c0,.08.06.12.18.12.24-.08.18-.12-.18-.12Zm2.62-5.61l.12,1.65c.28-.57.37-1.2.24-1.89-.04-1.1,0-2.22.12-3.36-.08-.28-.18-.31-.3-.06.04.45,0,.88-.12,1.28.04.81.02,1.61-.06,2.38Zm.49-9.15l.06.12c.32-.98.45-2.01.37-3.11h-.12l-.31,2.99Zm1.04,3.85l.12.24.43-1.95c-.37.16-.51.51-.43,1.04.04.24,0,.47-.12.67Zm.49-1.95c.12-.04.16-.18.12-.43-.12.04-.16.18-.12.43Zm.73,8.61c-.12,0-.2.04-.24.12.08.29.16.24.24-.12Zm.18-3.97l.12-.24c-.08-.2-.12-.12-.12.24Zm.18-12.21c.12.29.22.08.31-.61-.41.04-.51.24-.31.61Zm.61,1.1c-.08.24-.12.43-.12.55.12-.12.16-.31.12-.55Zm.12,11.29l.06.24c.12-.45.14-.89.06-1.34l-.12,1.1Zm1.34-4.64l.18.31v-1.16c-.16.24-.22.53-.18.85Zm7.2-4.76l.06-.24c1.02-.24,2.05-.33,3.11-.24.08,0,.3-.03.67-.09.37-.06.59-.09.67-.09h1.71c.16,0,.37-.02.61-.06l2.69-.06c.57-.08,1.13-.12,1.68-.12s1.1-.05,1.65-.15c.55-.1,1.07-.15,1.56-.15,1.71-.2,3.42-.31,5.13-.31.04,0,.24-.02.61-.06.28,0,.49-.02.61-.06l2.5-.31c.45-.04.93-.06,1.43-.06s1.01-.08,1.5-.24c.12,0,.37,0,.73-.03.37-.02.61-.05.73-.09l.49-.06c.65-.16,1.12.04,1.4.61-.94.65-2.03.94-3.3.85-.53.04-1.1.02-1.71-.06-.37.04-.67.08-.92.12l-2.08.18c-.24.04-.45.06-.61.06-.61.12-1.26.16-1.95.12-.49,0-.94.04-1.34.12l-1.59.12c-.37.04-.73.06-1.1.06h-1.1c-.37.04-.57.06-.61.06l-3.23.24c-.49.08-.98.12-1.46.12-1.51.2-3.05.33-4.64.37-.49.08-.92.12-1.28.12l-2.5.24c-.12-.28-.16-.59-.12-.92Zm2.01-5.55c.32-3.21.57-6.43.73-9.64-.16-.53.02-.92.55-1.16.28-.12.61-.18.98-.18l.61.12c.12,0,.44.02.95.06.51.04.89.06,1.13.06l.98.12c.37.04.61.06.73.06.2-.08.39-.06.55.06l7.32.24c2.56.29,5.13.45,7.69.49.24.04.53.06.85.06,1.14-.08,2.24.12,3.3.61.28,0,.43.16.43.49.12,1.14,0,2.26-.37,3.36,0,1.51-.18,2.99-.55,4.46.04.49-.08.9-.37,1.22-.73.24-1.49.33-2.26.24-.33.16-.69.22-1.1.18-.37.04-.61.06-.73.06l-2.87-.06c-.85,0-1.67.02-2.44.06-.85.04-1.67.06-2.44.06l-2.99-.06c-.33.04-.67.07-1.04.09-.37.02-.7.04-1.01.06-.3.02-.52.03-.64.03-.37.12-.75.1-1.16-.06-.24-.04-.51-.06-.79-.06-.85,0-1.65.03-2.38.09s-1.51.09-2.32.09c-.29,0-.59-.06-.92-.18-.37-.2-.51-.53-.43-.98Zm6.35,30.94l.12-1.4c.04-.94.08-1.89.12-2.87,0-.73-.08-1.46-.24-2.2l-5.13,4.03c-.24.29-.51.43-.79.43-.37-.33-.31-.65.18-.98.33-.2.51-.45.55-.73,1.67-2.48,3.17-5.04,4.52-7.69.24-.24.41-.51.49-.79-.65.16-1.28.37-1.89.61-.24.16-.55.24-.92.24-.08-.12-.18-.26-.31-.43-.24.12-.43.06-.55-.18l.06-2.93c-.04-.81,0-1.63.12-2.44-.04-1.59-.02-3.21.06-4.88.04-.24.19-.42.46-.52.26-.1.48-.11.64-.03l2.68-.18c.77-.08,1.59-.12,2.44-.12h3.23c.04-.08.31-.12.79-.12.41-.04.67-.06.79-.06l3.05-.06s.31-.06.79-.06c.41.04.67.06.79.06.53-.12,1.1-.16,1.71-.12.45.24.77.59.98,1.04-.2.9-.37,1.77-.49,2.62l-1.16,4.88c-.37.29-.79.43-1.28.43-.37.16-.75.18-1.16.06-.24,0-.45.04-.61.12-.65.29-1.34.47-2.07.55-.33.12-.67.14-1.04.06-.2.16-.45.24-.73.24-.65.9-.9,1.95-.73,3.17.04,2.32.02,4.66-.06,7.02.81-.41,1.59-.87,2.32-1.4.28-.12.57-.08.85.12.37.16.43.39.18.67-2.69,1.55-5.39,3.05-8.12,4.52-.45-.04-.67-.26-.67-.67Zm-3.91-39.98c.2.2.33.18.37-.06-.04-.33-.16-.31-.37.06Zm.18,35.46c.2,0,.39-.08.55-.24-.29-.24-.47-.16-.55.24Zm.24-26.43h.31c-.2-.33-.31-.33-.31,0Zm.49,18.31c0,.08.04.12.12.12.28-.08.24-.12-.12-.12Zm.49-18.55c-.08,0-.12.04-.12.12.08.24.12.2.12-.12Zm.55,11.6c.24-.2.26-.45.06-.73l-.06.73Zm.31-11.9l.12.55c.65.12,1.34.16,2.07.12.12,0,.18-.08.18-.24-.04-.24,0-.47.12-.67l.55-6.59c-.04-.61,0-1.18.12-1.71.16-.28.14-.53-.06-.73-1.02-.04-1.99,0-2.93.12.2.24.33.51.37.79-.37,2.24-.51,4.5-.43,6.77-.08.49-.12,1.02-.12,1.59Zm1.46,23.19l-1.04,1.34c.16.08.39-.08.67-.49.45-.33.57-.61.37-.85Zm.61-.55l-.37.31c.12.12.24.02.37-.31Zm-.12-7.87l.12.06.06-1.4c-.16.41-.22.85-.18,1.34Zm.61,3.05l-.12.31,6.96-1.89c0-.65.08-1.3.24-1.95.33-1.67.57-3.34.73-5,.04-.16,0-.26-.12-.31l-2.07.31c-.45-.04-.92,0-1.4.12-.98,0-1.97.04-2.99.12-.33-.08-.55,0-.67.24.08.9,0,1.77-.24,2.62.04,1.55-.06,3.07-.31,4.58-.12.24-.12.53,0,.85Zm.67,6.59c-.12.61-.16,1.26-.12,1.95h.12l.06-2.01-.06.06Zm1.1-3.91c.24.04.41-.18.49-.67-.2.12-.37.35-.49.67Zm.18,1.46c0,.16.08.2.24.12,0-.45-.08-.49-.24-.12Zm1.28-23.5c.12.65.18,1.34.18,2.07.12,0,.43-.02.92-.06l1.22-.06c.24.04.47,0,.67-.12.41-2.2.75-4.41,1.04-6.65.12-.81.14-1.63.06-2.44l-2.93-.18-.24,2.2c-.2,1.75-.51,3.5-.92,5.25Zm.31,26.24v.31c.2.33.27.27.21-.18-.06-.45-.13-.49-.21-.12Zm2.26-5.07c.28-.24.55-.24.79,0,.73.04,1.4.33,2.01.85.28.08.43.22.43.43.85.2,1.67.51,2.44.92l1.4-1.59c.89-1.5,1.83-2.97,2.81-4.39,1.5.45,2.81,1.22,3.91,2.32-1.38,1.83-2.89,3.6-4.52,5.31.49.29,1.02.49,1.59.61,1.55.53,3.03,1.1,4.46,1.71.24.24.26.59.06,1.04-.61,1.3-1.32,2.54-2.14,3.72-.57.24-.98.1-1.22-.43l-4.33-3.48c-1.75-1.02-3.36-2.28-4.82-3.78-1.18-.94-2.14-2.01-2.87-3.23Zm4.39-19.96c-.24.24-.45.41-.61.49l1.28-.12c.49-.04.77-.06.85-.06.94-.12,1.28-.75,1.04-1.89.16-.33.24-.67.24-1.04-.04-.28,0-.55.12-.79.41-1.55.59-3.11.55-4.7l-2.14-.06-.12.73c-.2.94-.37,1.89-.49,2.87-.24.16-.33.39-.24.67-.16,1.26-.33,2.56-.49,3.91Zm-.61,9.52c.08.04.14.08.18.12.2.2.31.14.31-.18-.2-.2-.37-.18-.49.06Zm1.16-.06c-.04.33.02.51.18.55.08-.28.02-.47-.18-.55Zm1.16.12c.16.24.31.2.43-.12l-.43.12Z" style="fill: #ea8675; stroke-width: 0px;"/>
      <path d="m112,32.47c.52-.2,1.09-.32,1.69-.36.6.08,1.17,0,1.69-.24.36-.12.58-.18.66-.18l.42-.06.06-8.44c-.76-.16-1.61-.24-2.53-.24-.36,0-.66-.2-.9-.6.04-.24.18-.36.42-.36,1.05.04,2.07,0,3.08-.12.16-.88.18-1.79.06-2.71-.08-.2-.06-.42.06-.66.44-.88,1.29-1.21,2.53-.97.28.12.6.16.97.12.44-.08.88-.06,1.33.06.28.04.6.06.97.06.2.08.3.24.3.48.16,1.29.22,2.55.18,3.8.36.12.76.16,1.21.12.6,0,1.07.22,1.39.66,0,.4-.21.6-.63.6s-.75.02-1,.06h-1.03c-.16.52-.22,1.07-.18,1.63-.12.8-.14,1.65-.06,2.53.12.97.12,1.93,0,2.9.2.04.49.01.87-.09.38-.1.61-.15.69-.15l1.09-.3c.44-.04.88-.12,1.33-.24.2-.24.4-.26.6-.06-.28.64-.76,1.01-1.45,1.09-3.38,1.73-6.9,3.32-10.56,4.76-.28.2-.6.32-.97.36-.93-.68-1.61-1.61-2.05-2.77-.24-.16-.32-.38-.24-.66Zm8.32-12.24c0,.4.1.76.3,1.09l-.06-.84c-.08-.36-.16-.44-.24-.24Zm.78-.18c.16.32.22.2.18-.36-.16,0-.22.12-.18.36Zm0,10.74c.12.2.18.1.18-.3-.12-.2-.18-.1-.18.3Zm.06-.6c.12-.16.12-.36,0-.6v.6Zm.12-3.32l.12-.72c.08-.32.06-.64-.06-.97l-.06,1.69Zm6.09,18.46c0-.52.22-.98.66-1.39.12-.2.26-.34.42-.42.6-1.09,1.25-2.13,1.93-3.14l3.74-6.94c.24-.28.12-.4-.36-.36-.28.08-.54.04-.78-.12-.24-.16-.48-.22-.72-.18-.44.04-.64-.24-.6-.84.04-.36,0-.74-.12-1.15.08-.32.06-.6-.06-.84l-.36-4.28c-.08-.97-.04-1.95.12-2.96.44-.44,1.09-.6,1.93-.48.28.04.48.06.6.06h1.51c.48,0,1.03.02,1.63.06l1.03.12c.36.04.7.06,1.03.06.44,0,.84-.02,1.21-.06l3.08.06c.76.08,1.51.12,2.23.12.44-.08.88-.06,1.33.06.32.08.66.12,1.03.12.72-.12,1.31.08,1.75.6.44.16.66.48.66.97-.12,2.86-.54,5.69-1.27,8.5,0,.36-.2.58-.6.66-.32.12-.64.16-.97.12-.52,0-.93.16-1.21.48.04,1.09,0,2.15-.12,3.2-.04.36-.04.78,0,1.27l-.06,1.57c.36.48.82.68,1.39.6l6.39-1.15c0-1.81-.06-3.64-.18-5.49,0-.32.12-.48.36-.48s.48-.05.72-.15c.24-.1.44-.15.6-.15.36-.12.68-.08.96.12.6,1.29,1.05,2.63,1.33,4.04.2.64.28,1.31.24,1.99-.8,1.13-2.01,1.63-3.62,1.51-.12,0-.36.02-.72.06l-.78.12c-.28-.08-.4-.08-.36,0-.88.08-1.75.26-2.59.54-.4.08-.76.12-1.09.12l-1.75.3c-.24.08-.48.12-.72.12h-2.05c-.4.04-.78.06-1.15.06-.36.12-.74.16-1.15.12-.44.08-.78-.06-1.03-.42-.56-.2-.87-.6-.91-1.21-.04-.72.02-1.45.18-2.17l.48-5.13c-.12-.16-.26-.16-.42,0-.93,1.69-2.05,3.24-3.38,4.64-.6.84-1.29,1.63-2.05,2.35-.24-.08-.39.01-.45.27-.06.26-.23.39-.51.39-1.41,1.45-2.92,2.77-4.52,3.98-.44-.08-.82.02-1.15.3-.36.2-.6.14-.72-.18Zm1.81-26.24l.12-.42c.2-.36.5-.54.91-.54.96,0,1.91.04,2.83.12.52,0,1.03-.02,1.51-.06h3.2c.52.04,1.09.06,1.69.06h.6c0-.08-.08-.2-.24-.36-.04-.84.14-1.65.54-2.41.12-.84.22-1.71.3-2.59.28-.6.48-1.27.6-1.99,0-.28.1-.42.3-.42l.42.18c.28-.16.54-.16.78,0,1.09-.2,2.03-.02,2.83.54-.28,2.09-.7,4.16-1.27,6.21-.12.52.1.7.66.54.52-.04,1.09-.06,1.69-.06,1.33-.2,2.67-.28,4.04-.24l.06-.12c.08,0,.2.08.36.24.52,0,.94.16,1.27.48.2.28.18.56-.06.84l-3.8.36c-.24-.08-.5-.12-.78-.12-.36.04-.74,0-1.15-.12-.36,0-.68.03-.97.09-.28.06-.58.09-.9.09-.2,0-.36-.02-.48-.06-.93-.04-1.85-.02-2.77.06-.12,0-.36-.02-.72-.06l-8.2.06c-.24.04-.5.06-.78.06-.44-.04-.88,0-1.33.12-.56.16-.99,0-1.27-.48Zm.84-10.01l-.48-.48c.12-.24.28-.46.48-.66.64,0,1.27.04,1.87.12,1.45.04,2.87,0,4.28-.12l-3.5-4.52c0-.24.16-.36.48-.36,1.37-.08,2.71.06,4.04.42.97,1.21,2.01,2.35,3.14,3.44.08.32.06.64-.06.97l4.04-.06c.68-.04,1.33,0,1.93.12.36.36.32.66-.12.9-.72.2-1.49.26-2.29.18-1.33.04-2.65,0-3.98-.12-.48.04-.78.06-.9.06h-2.9c-.52.04-1.03.06-1.51.06h-.9c-.48,0-.92.03-1.3.09-.38.06-.79.09-1.24.09l-1.09-.12Zm4.34,7.6l-2.11-4.4c-.2-.24-.3-.5-.3-.78.28-.36.6-.54.97-.54,1.09-.36,1.95-.06,2.59.9.72.6,1.35,1.33,1.87,2.17.28.2.44.44.48.72-.68.68-1.45,1.35-2.29,1.99-.2.2-.4.22-.6.06-.24.04-.44,0-.6-.12Zm-1.27,7.84c.16.28.2.22.12-.18-.08-.2-.12-.14-.12.18Zm3.08,7.6c0,.08.04.12.12.12l6.21.12c.16-.2.3-.48.42-.84l.54-5.73c-.04-.72.1-1.41.42-2.05,0-.2-.2-.3-.6-.3h-.72c-.12,0-.37-.02-.75-.06-.38-.04-.61-.06-.69-.06h-5.19c-.28-.12-.44-.06-.48.18,0,1.33.12,2.63.36,3.92l3.86.18c.28.04.48.06.6.06h.24s.24-.02.6-.06c.36-.04.7,0,1.03.12.32.24.32.46,0,.66-.28.32-.64.44-1.09.36-.12,0-.31,0-.57-.03-.26-.02-.54-.04-.84-.06-.3-.02-.57-.05-.81-.09l-2.35-.18c-.36-.12-.62-.08-.78.12l.06,2.47c.12.4.26.78.42,1.15Zm7.12,1.75h.12c-.04-.36-.08-.36-.12,0Zm2.41.66c.08-.24.12-.4.12-.48-.12.04-.16.2-.12.48Zm.84-8.87c.08.24.14.16.18-.24-.08-.32-.14-.24-.18.24Zm.06.48s-.06,0-.06.12c.04.24.06.2.06-.12Zm10.13,12.55c.2,0,.24-.08.12-.24-.08-.32-.12-.24-.12.24Z" style="fill: #bef286; stroke-width: 0px;"/>
      <path d="m165.8,43.13l.35-.58c.39-.23.77-.23,1.16,0,.23.12.46.17.7.17.08,0,.12-.06.12-.17l.29-4c-.43-.12-.81-.04-1.16.23-.23.04-.46.06-.7.06l-1.57.17c-.39.08-.61.12-.67.12s-.2.02-.43.06c-.35.19-.64.14-.87-.17-.23-.15-.29-.39-.17-.7.12-.23.28-.35.49-.35s.42-.02.61-.06l1.8-.35c.23-.08.44-.12.64-.12.73,0,1.47-.14,2.2-.41.12-.89.27-1.8.46-2.73-.19-.5-.1-.95.29-1.33.81-1.04,1.64-2.05,2.49-3.02-.27-.39-.73-.52-1.39-.41-.46-.08-.95-.12-1.45-.12l-2.44.06-5.8,4.23c-.7.5-1.41.99-2.15,1.45-.31-.04-.45-.21-.41-.52,1.7-1.82,3.28-3.71,4.75-5.68,1.16-1.66,2.38-3.27,3.65-4.81.39-.31.64-.66.75-1.04-.12,0-.37-.02-.75-.06h-.7c-.12,0-.36.02-.72.06-.37.04-.59.06-.67.06-1.74,0-3.48.14-5.22.41-.46.08-.97.11-1.51.09-.54-.02-.81-.34-.81-.96-.15-.23-.08-.42.23-.58.23-.08.46-.12.7-.12.04,0,.29-.02.75-.06l1.22-.06c.62-.08,1.24-.1,1.86-.06.27.04.46.06.58.06h.06c.27-.12.52-.17.75-.17s.5-.02.81-.06l.93-.17.35-4.17c-.04-.42,0-.79.12-1.1,0-2.13.1-4.27.29-6.44-.35-.15-.79-.19-1.33-.12-.35.04-.7.06-1.04.06h-.52c-.16,0-.35-.02-.58-.06-.35-.39-.31-.73.12-1.04.27-.12.52-.17.75-.17l1.16.06c.35.04.58.06.7.06h.81c.12-1,.17-2.01.17-3.01-.08-.58-.02-1.12.17-1.62.15-.66.64-.91,1.45-.75.35.12.68.21.99.29,1.08.08,2.14.21,3.19.41.35.19.73.25,1.16.17.27.35.39.79.35,1.33.08,1.08.04,2.15-.12,3.19-.04.39.13.52.52.41.27,0,.52-.02.75-.06.81-.15,1.47-.02,1.97.41.23.39.15.7-.23.93-.15.08-.39.04-.7-.12-.23,0-.47.03-.72.09-.25.06-.51.09-.78.09-.12,0-.19-.02-.23-.06-.23-.08-.41-.06-.52.06l-.12,1.97c-.12.93-.14,1.86-.06,2.78.62-.97,1.29-1.91,2.03-2.84,1.08.31,2.05.85,2.9,1.62.81.31,1.29.83,1.45,1.57-1.01,1.51-2.09,2.98-3.25,4.41-.35.27-.66.66-.93,1.16.39,0,.75-.02,1.1-.06l3.83-.41c.39-.04.6.12.64.46,0,.23-.1.41-.29.52-.23.39-.54.52-.93.41-.62-.08-1.2,0-1.74.23-1.28-.04-2.55,0-3.83.12-.31.23-.6.52-.87.87-1.7,1.66-3.38,3.34-5.04,5.04.39.19.81.25,1.28.17.19.04.41.07.64.09.23.02.46.03.7.03,1.47.15,2.96.23,4.46.23.35.04.7.06,1.04.06,1.2.04,2.38.17,3.54.41.23.19.33.41.29.64-1.24,1.12-2.44,2.28-3.59,3.48.08.7.06,1.43-.06,2.2,1.16-.15,2.28-.41,3.36-.75.12-.04.31-.06.58-.06.19,0,.35.08.46.23.39.58.23.91-.46.99-.35,0-.54.12-.58.35l-1.74.29c-.31.04-.58.06-.81.06-.39.04-.7.19-.93.46l-.46,2.9c-.08.5-.12.99-.12,1.45.04.62-.04,1.22-.23,1.8-.19.12-.24.3-.14.55.1.25.09.47-.03.67-.08.31-.04.58.12.81,0,.31-.16.47-.49.49-.33.02-.57.03-.72.03-.54-.08-1.1-.21-1.68-.41-.19-.08-.41-.12-.64-.12s-.43-.02-.58-.06l-4.93-1.45c-.31-.12-.46-.31-.46-.58Zm-.93-20.76s-.09-.05-.26-.03c-.17.02-.09.03.26.03Zm1.51-5.57c-.04.23.02.33.17.29-.08-.35-.06-.7.06-1.04l.12-1.51c-.27.73-.39,1.49-.35,2.26Zm1.16-11.89c-.19.08-.35.19-.46.35.23-.04.39-.15.46-.35Zm1.28,6.2c-.12.46-.16.97-.12,1.51.12-.19.17-.41.17-.64.08-.31.06-.6-.06-.87Zm0,31.6v.12c.08-.08.08-.12,0-.12Zm1.04.46c.19.19.33.17.41-.06-.12-.19-.25-.17-.41.06Zm1.16,0c0,.27.08.41.23.41l.12-2.84c-.12,0-.17.06-.17.17l-.17,2.26Zm.7-4.52c.04.12.1.21.17.29v-1.04c-.19-.04-.25.21-.17.75Zm2.2-23.48c-.12,0-.19.06-.23.17-.12.23-.04.17.23-.17Zm.23,29.16c.19.08.27-.12.23-.58-.23.12-.31.31-.23.58Zm.35-14.15h.06c.27-.19.25-.19-.06,0Zm.87-12.81c-.27.19-.48.43-.64.7.27-.08.48-.31.64-.7Zm.52-3.77v-.06c-.16-.08-.16-.06,0,.06Zm4.99,28.18c.04-.27.19-.5.46-.7,1.89-3.05,3.61-6.18,5.16-9.39-1.62-1.39-3.25-2.82-4.87-4.29.15-.39.52-.5,1.1-.35,1.47.85,2.98,1.57,4.52,2.15.15.15.33.21.52.17,1.24-2.16,2.2-4.44,2.9-6.84-.15,0-.27-.02-.35-.06-.31-.12-.64-.17-.99-.17s-.68-.02-.99-.06h-.52c-.23,0-.5-.02-.81-.06-.89.15-1.72.04-2.49-.35-.35-.43-.66-.39-.93.12-1.04,1.24-2.18,2.4-3.42,3.48-.39.15-.56.37-.52.64-.23-.04-.37.02-.41.17-.15.23-.37.29-.64.17-.15-.19-.15-.46,0-.81.23-.15.35-.33.35-.52l2.09-4.06,3.3-9.45c.08-.35.24-.52.49-.52s.53.04.84.12c.7.27,1.43.48,2.2.64.31.15.58.23.81.23.46,0,.93.04,1.39.12.35,0,.52.15.52.46l-1.62,2.44c-1.2,2.09-2.59,4.02-4.17,5.8.19.08.37.13.52.14.15.02.35.03.58.03h.46c.23.04.51.07.84.09.33.02.61.03.84.03l1.68.06c.08,0,.29.02.64.06.35.04.64.06.87.06.15.04.31.08.46.12.27.04.46.06.58.06h1.33c.42.04.71.06.87.06.23.15.5.15.81,0,.15.12.34.17.55.17s.45.02.72.06c.43.12.83.12,1.22,0,.04,0,.23-.02.58-.06.66-.08,1.06.17,1.22.75,0,.31-.16.46-.46.46h-1.33l-.46.81-2.03,3.71c-.81,1.24-1.66,2.44-2.55,3.59-.19.15-.29.33-.29.52l4.23,2.15c1.12.27,2.18.72,3.19,1.33.73.19,1.33.54,1.8,1.04l-2.84,4.12c-.66.62-1.31.66-1.97.12-.19-.27-.41-.41-.64-.41-2.01-1.78-4.1-3.52-6.26-5.22l-3.07,3.36c-.31.27-.64.52-.99.75-1.35,1.16-2.84,2.18-4.46,3.07-.23.27-.43.23-.58-.12Zm.23-19.83l.23-.23c-.19-.04-.27.04-.23.23Zm3.65,16.41c-.15,0-.23.08-.23.23.27-.12.35-.19.23-.23Zm.41-26.38c-.23.08-.35.29-.35.64.19-.08.31-.29.35-.64Zm2.2,23.83c-.12,0-.21.14-.29.41.19-.12.29-.25.29-.41Zm.75-.81c-.19,0-.29.12-.29.35.19-.08.29-.19.29-.35Zm.12-22.15c-.12,0-.17.08-.17.23l.17-.23Zm.93,17.34c.15-.19.23-.41.23-.64-.31.15-.39.37-.23.64Zm2.78,5.33l1.74,1.45c-.27-.5-.68-.93-1.22-1.28-.27-.27-.44-.33-.52-.17Zm.52-5.97c.12,0,.17-.06.17-.17-.16-.15-.21-.1-.17.17Zm.35-6.84c-.08,0-.12.08-.12.23.15.08.19,0,.12-.23Zm1.51,3.65l-.46.75c.23.08.39-.17.46-.75Zm1.28-3.48c-.35-.04-.54.19-.58.7l.58-.7Zm4.81,13.28c0,.12.1.17.29.17,0-.12-.1-.17-.29-.17Z" style="fill: #cf92ef; stroke-width: 0px;"/>
      <path d="m205.82,22.69c.41-2.07.75-4.15,1.01-6.25.38-1.13.62-2.27.73-3.44-.08-.23-.06-.41.06-.56l-4.11-.11c-.45.04-.92.06-1.41.06-.68.19-1.2.08-1.58-.34.11-.49.45-.69,1.01-.62,1.09-.11,2.2-.13,3.32-.06.68-.04,1.33-.06,1.97-.06.15,0,.34-.02.56-.06h2.25c.38,0,.79-.02,1.24-.06.38-.04.79-.06,1.24-.06v-.39l-2.31-4.28c-.3-.38-.47-.83-.51-1.35.53-.79,1.28-.83,2.25-.11,1.28.68,2.54,1.39,3.78,2.14.68.04,1.15.36,1.41.96.15.19.11.36-.11.51-.6.94-1.41,1.75-2.42,2.42h3.89c.19-.04.39-.06.62-.06h.17c.41.04.81.07,1.18.08.38.02.79.03,1.24.03l.56-.06c.15,0,.51-.02,1.07-.06h2.87c.11-.11.23-.11.34,0,.49-.04.94-.04,1.35,0,.56.3.6.64.11,1.01-.94.19-1.9.19-2.87,0-.45,0-.86.02-1.24.06-.38.04-.77.06-1.18.06-.49,0-.96-.02-1.41-.06-.45-.04-.92-.06-1.41-.06-1.01-.04-2.05.02-3.1.17-.49,1.24-.94,2.52-1.35,3.83-.45.86-.81,1.82-1.07,2.87-.19.38-.28.77-.28,1.18-.23.11-.34.34-.34.68.56.15,1.16.09,1.8-.17.34-.11.68-.17,1.01-.17s.66-.06.96-.17c1.43-.45,2.84-.86,4.23-1.24.07-.41.02-.79-.17-1.13-.38-.68-.55-1.37-.51-2.08,0-.19.14-.28.42-.28s.48.04.59.11c.41.08.73.26.96.56,1.28.68,2.37,1.58,3.27,2.7.19.19.3.38.34.56.19.11.3.26.34.45-.49,1.05-1.28,1.94-2.37,2.65-.34.23-.58.34-.73.34-.38-.19-.58-.53-.62-1.01-.26-.68-.66-1.28-1.18-1.8-.23,0-.51.04-.85.11-.34.08-.55.17-.62.28-1.92.26-3.79.62-5.63,1.07-.26.11-.45.17-.56.17l-3.49.9c-.26.11-.55.17-.85.17-.75.15-1.52.34-2.31.56-.71.23-1.24.02-1.58-.62Zm14.88,23.05c-1.35-.79-2.52-1.82-3.49-3.1-.64-.53-1.32-1.07-2.03-1.63-.49-.26-.55-.58-.17-.96.94-.26,1.78.06,2.54.96l2.99-12.9c.19-.49.23-.99.11-1.52l-2.25-.17c-.19,0-.39,0-.62-.03-.23-.02-.45-.05-.68-.08h-1.58c-.79-.07-1.62-.06-2.48.06.04.49-.06.96-.28,1.41-.08.3-.06.58.06.85-.26.34-.39.7-.39,1.1s.21.54.62.42c.11,0,.34,0,.68-.03.34-.02.69-.05,1.07-.08l1.75-.11c.68-.3,1.31-.24,1.92.17.41.41.28.71-.39.9l-5.8.11c-.08.38-.17.77-.28,1.18,0,.26-.06.45-.17.56-.04.38,0,.68.11.9,1.88-.41,3.72-.92,5.52-1.52.19-.11.41-.17.68-.17l.45.23c.34.56.15.9-.56,1.01-.34.11-.53.17-.56.17-.3.15-.64.24-1.01.28-1.32.45-2.67.83-4.06,1.13-.64,0-1,.26-1.07.79,0,.34-.06.62-.17.85-.19,1.32-.45,2.63-.79,3.94-.08.15-.11.34-.11.56.07.9-.09,1.73-.51,2.48-.11.23-.3.32-.56.28-.34.3-.75.51-1.24.62-.34.23-.7.34-1.07.34-.3.08-.6.17-.9.28-.56-.23-1.03-.06-1.41.51-.11.38-.3.64-.56.79-.26-.04-.38-.21-.34-.51.53-1.69,1.03-3.4,1.52-5.13.49-3.64,1.11-7.29,1.86-10.93.15-.49.23-.99.23-1.52,0-1.31.47-2.31,1.41-2.99h3.16c.23.08.41.11.56.11h.62c.3,0,.57,0,.82-.03.24-.02.54-.05.87-.08l1.86-.06c.45.04.94.06,1.47.06h1.35c.23.04.49.06.79.06,1.69.11,3.38.15,5.07.11.19.08.39.11.62.11s.41-.02.56-.06l.56.39c.26-.07.43,0,.51.23.15.56.21,1.13.17,1.69-.45,2.18-.83,4.38-1.13,6.59-.23.56-.43,1.16-.62,1.8l-.68,3.38c-.26,1.47-.66,2.91-1.18,4.34.04.34,0,.67-.11.99-.11.32-.19.65-.23.99-.08.56-.32.98-.73,1.24-.86-.26-1.62-.71-2.25-1.35Zm-12.28-6.25c-.23.08-.32.24-.28.51.19-.11.28-.28.28-.51Zm.9-25.3l-.68,3.61c.04.15.09.15.17,0l1.3-5.41c.08-.23-.04-.3-.34-.23,0,.71-.15,1.39-.45,2.03Zm-.23,23.84c-.15,0-.23.06-.23.17.07.26.15.21.23-.17Zm.34-.73c-.15,0-.23.15-.23.45l.23-.45Zm.34-1.35c-.23.26-.34.56-.34.9.19-.23.3-.53.34-.9Zm-.28-17.3h.11c-.04-.38-.08-.38-.11,0Zm.28,7.89c0,.19.09.23.28.11.11-.11.02-.15-.28-.11Zm.34,12.23c-.15.19-.21.39-.17.62.07-.26.13-.47.17-.62Zm.34-9.92l-.34,1.35c-.15.38-.15.68,0,.9l.34-2.25Zm-.06-23.05c.15.15.28.23.39.23,0-.11-.13-.19-.39-.23Zm.45,9.52l.06.17c.19-.3.26-.62.23-.96-.19.04-.28.3-.28.79Zm.34,16.62c-.11,0-.19.06-.23.17,0,.34.07.28.23-.17Zm-.17-19.78c0,.08.04.11.11.11.23-.11.19-.15-.11-.11Zm.11-4.96c0,.11.08.24.23.39.19-.23.11-.36-.23-.39Zm1.13,4.9c-.04.15,0,.24.11.28.23-.23.19-.32-.11-.28Zm.39,1.58c-.11.08-.17.19-.17.34-.15.34-.23.66-.23.96.08,0,.19-.17.34-.51.23-.38.24-.64.06-.79Zm.17,6.09v.11c.23,0,.3-.17.23-.51,0-.19-.08-.06-.23.39Zm6.65,14.99l.11.11c.41-.56.66-1.24.73-2.03-.04-.23,0-.43.11-.62.08-.3.15-.56.23-.79.07-.3.04-.54-.11-.73,0,.41-.08.81-.23,1.18l-.56,2.54c-.15.11-.24.23-.28.34Zm2.99,5.24c.07,0,.11-.07.11-.23-.08-.07-.11,0-.11.23Zm.45-1.58c-.23.15-.32.38-.28.68.19.08.28-.15.28-.68Zm-.17-3.61c-.08.34-.11.66-.11.96.11-.07.22-.18.31-.31.09-.13.18-.29.25-.48.07-.38-.08-.43-.45-.17Z" style="fill: #73ddab; stroke-width: 0px;"/>
      <path d="m238.7,38.81c-2.06-1.46-4.11-2.93-6.17-4.43.17-.26.26-.45.26-.58.9-.17,1.8.09,2.7.77.43-1.2.71-2.46.84-3.79.09-.68.13-1.37.13-2.06-1.07.47-2.19.88-3.34,1.22-.21.3-.51.45-.9.45-.34.17-.6.11-.77-.19l-.51-4.11c0-.34.17-.51.51-.51l3.09-.51c.04-.09.26-.14.64-.16.39-.02.62-.03.71-.03l1.22-.26.64-4.95c.17-.64.21-1.29.13-1.93-.86-.04-1.71.02-2.57.19-.26.09-.53.13-.8.13s-.57.02-.87.06h-1.16c-.09-.64.13-1.11.64-1.41.26.04.47,0,.64-.13.64-.13,1.31-.18,1.99-.16.68.02,1.35.01,1.99-.03l.45-.19c.17-1.5.43-2.98.77-4.43-.13-.43.04-.77.51-1.03.81,0,1.63-.15,2.44-.45.39.09.76.02,1.12-.19.36-.21.78-.26,1.25-.13.39-.09.75,0,1.09.26,0,1.5-.15,2.98-.45,4.43-.21.69-.09,1.09.39,1.22.21-.13.46-.2.74-.22.28-.02.55-.03.8-.03h.32c.3-.04.45.06.45.32.3.34.28.66-.06.96-.26.13-.47.19-.64.19l-.58-.13c-.13.04-.4.05-.8.03-.41-.02-.76.12-1.06.42l-.39,2.63c-.3,1.07-.49,2.19-.58,3.34.26,0,.48-.05.67-.16.19-.11.42-.16.67-.16l.64-.06c.47-.21.94-.19,1.41.06.3-.17.49-.17.58,0,.26.3.47.32.64.06,0,.51-.24.81-.71.9-.39-.04-.66.09-.84.39l-3.53,1.48-.32,2.76c-.51,3.3-.96,6.6-1.35,9.9-.04.51-.3.79-.77.84-.6-.21-1.24-.41-1.93-.58Zm-5.59-9.96c-.13,0-.19.11-.19.32.21.04.28-.06.19-.32Zm3.02-.96c-.22.04-.36.15-.45.32.3,0,.45-.11.45-.32Zm2.83-6.43l.13-.13c.04-.39,0-.34-.13.13Zm1.03-3.08c.26-.04.36-.3.32-.77-.26.13-.36.39-.32.77Zm.45,3.41c-.09.09-.13.19-.13.32.09.13.13.02.13-.32Zm1.48-.77c-.09.13-.13.3-.13.51.13.17.17,0,.13-.51Zm.06-1.09l.06-.32c0-.13-.02-.02-.06.32Zm.32-2.25c-.22.39-.26.81-.13,1.29l.13-1.29Zm20.82,29.43h-1.48c-.39.04-.6.06-.64.06l-2.83-.19c-.6-.17-.77-.6-.51-1.29.17-1.37.26-2.76.26-4.18.21-1.67.41-3.36.58-5.08l-2.44,2.25c-.9.64-1.84,1.2-2.83,1.67-1.29,1.03-2.7,1.93-4.24,2.7-.47-.04-.6-.3-.39-.77.17-.21.34-.36.51-.45.3-.26.51-.58.64-.96.47-.43.86-.94,1.16-1.54.3-.21.49-.47.58-.77l3.6-5.98c.26-.04.43-.17.51-.39l-4.63-.06c-.34-.3-.41-.75-.19-1.35.34-.13.66-.21.96-.26l3.66.06c.9.09,1.8.13,2.7.13h.9c.17-.3.26-.62.26-.96.04-1.2.13-2.42.26-3.66.26-.68.34-1.41.26-2.19.17,0,.26-.09.26-.26.13-.26.36-.28.71-.06,1.07-.13,2.12.02,3.15.45.77.09,1.52.3,2.25.64.3-.09.51,0,.64.26v4.56c-.21.6-.19,1.05.06,1.35.13,0,.43-.02.9-.06h1.03c.47.09.92.13,1.35.13l1.41.13c.39.04.66.06.84.06s.32.24.45.71l-.58.96c-.3.13-.56.11-.77-.06-.47-.17-.96-.15-1.48.06l3.73,7.33c-.9.99-1.82,1.97-2.76,2.96-.22.17-.43.32-.64.45-.22-.09-.43-.06-.64.06-1.46-2.48-2.61-5.18-3.47-8.1-.22.86-.32,1.76-.32,2.7-.39,2.01-.64,4.07-.77,6.17.17.64.11,1.26-.19,1.86-.04.17-.04.39,0,.64-.09.43-.28.53-.58.29-.3-.23-.62-.16-.96.23.09-.04,0-.13-.26-.26Zm7.58-33.61c-.09-.47,0-.88.26-1.22.09-1.41.28-2.81.58-4.18-.13-.3-.39-.36-.77-.19-.39-.13-.73-.13-1.03,0-1.63.04-3.28,0-4.95-.13-.26,0-.45-.06-.58-.19-.26,0-.54.02-.84.06-.26-.04-.47-.04-.64,0-.6-.13-1.24-.17-1.93-.13-.17-.13-.3-.13-.39,0l-1.67-.06c-.17,0-.39-.02-.64-.06-.81.04-1.63,0-2.44-.13l-1.61,6.43c-.17.39-.45.49-.84.32-.9.09-1.76.02-2.57-.19-.39-.13-.72-.2-1-.22-.28-.02-.42-.27-.42-.74l.84-5.78c.09-.77.47-1.18,1.16-1.22.68-.17,1.39-.21,2.12-.13.09.04.32.08.71.1.39.02.64.03.77.03l3.02.06c.81.09,1.61.13,2.38.13,1.11,0,2.23.11,3.34.32.43.04.71.06.84.06.6.04,1.16.06,1.67.06h1.67c.09.04.32.08.71.1.39.02.64.03.77.03l1.22.06c1.97-.13,3.9-.02,5.78.32.34-.04.66.04.96.26.43.13.73.36.9.71-.13.73-.54,1.46-1.22,2.19-1.59,1.33-3.13,2.7-4.63,4.11-.22-.13-.47-.19-.77-.19-.47,0-.73-.19-.77-.58Zm-17.09,25.9c.39,0,.71-.19.96-.58-.43-.04-.75.15-.96.58Zm2.7-18.32c-.6-1.03-1.35-1.97-2.25-2.83-.26-.34-.28-.64-.06-.9,1.11-.73,2.12-1.58,3.02-2.57.39-.34.62-.51.71-.51.64-.39,1.24-.86,1.8-1.41.26-.3.6-.45,1.03-.45.21,0,.39.09.51.26.3.51.26,1.03-.13,1.54l-3.98,7.07-.64-.19Zm5.72,15.04l.19.13.06-1.35-.26,1.22Zm.84-2.44c-.04.6,0,1.18.13,1.74l.26-2.38c0-.3-.06-.56-.19-.77-.17.43-.24.9-.19,1.41Zm1.74,8.42c.21.04.28-.13.19-.51-.17.09-.24.26-.19.51Zm2.89-20.5l-1.41-3.41c-.13-.94.3-1.65,1.29-2.12.21-.13.47-.19.77-.19.43.13.71.43.84.9,1.03,1.46,2.03,2.94,3.02,4.43.43.47.84.99,1.22,1.54,0,1.03-.38,1.86-1.12,2.51-.75.64-1.34,1.37-1.77,2.18-.51-.04-.77-.39-.77-1.03-.81-1.54-1.5-3.15-2.06-4.82Zm1.74,14.59c-.04.26.04.45.26.58,0-.3-.09-.49-.26-.58Z" style="fill: #f9cc3e; stroke-width: 0px;"/>
      <path d="m278.2,24.1c.14-.35.21-.72.21-1.11.18-1.16.25-2.33.21-3.49.11-.53.09-1.06-.05-1.59-.07-.28,0-.51.21-.69l2.81-.16c.32-.11.62-.12.9-.05l3.12-.26c.32,0,.64-.02.95-.05,1.27-.18,2.58-.3,3.92-.37-.07-.28-.04-.51.11-.69l.11-3.34c-.14-.21-.44-.28-.9-.21-.46,0-.9.03-1.32.08-.42.05-.85.08-1.27.08-.21,0-.45,0-.71-.03-.26-.02-.4-.17-.4-.45,0-.21.09-.34.26-.37h2.65c.25-.07.54-.11.87-.11s.61-.02.82-.05c.11-.81.16-1.64.16-2.49-.18-.6-.16-1.24.05-1.91.46-.49,1.08-.65,1.85-.48.32.04.64.09.95.16.39.04.64.05.74.05l1.69.37c.6-.11,1.15,0,1.64.32l-.16,2.81c-.07.39-.02.71.16.95.03,0,.21.02.53.05.39.04.78,0,1.17-.11.92-.25,1.55.02,1.91.79-.32.35-.74.41-1.27.16-.21-.11-.45-.15-.71-.13-.26.02-.55.04-.85.08-.3.04-.61.05-.93.05v1.59c-.11.71-.11,1.43,0,2.17l3.12-.05.11-.11c.32-.07.67-.11,1.06-.11h1.06c.39-.07.74-.11,1.06-.11s.67-.02,1.06-.05c.07,0,.27-.03.61-.08.34-.05.56-.08.66-.08l1.96-.11c.21.04.41,0,.58-.11.92-.03,1.8.02,2.65.16.25.39.23.81-.05,1.27-.35.42-.69.94-1.01,1.54-.95.92-1.87,1.87-2.75,2.86-.21.25-.48.37-.79.37,0,.04-.07.11-.21.21-.25.14-.41.09-.48-.16-.14-1.52.07-3.05.64-4.61.03-.35-.09-.51-.37-.48-.21.07-.42.11-.64.11-1.13.11-2.26.14-3.39.11-.53.18-1.04.26-1.54.26-.88,0-1.77.04-2.65.11-.39,0-.74.04-1.06.11l-1.85.32c-.25.11-.51.07-.79-.11-.39-.03-.74,0-1.06.11-.42-.11-.92-.07-1.48.11-.35-.07-.58.04-.69.32-.18.35-.39.35-.64,0-.11-.18-.25-.26-.42-.26l-2.17.16c-.32.07-.67.07-1.06,0-.21-.03-.39,0-.53.11-.88.07-1.78.12-2.7.16-.28,0-.48.14-.58.42l-.05,1.96c-.28.88-.42,1.8-.42,2.75.07.56-.11.95-.53,1.16-.99.14-1.94.37-2.86.69-.21.11-.46.16-.74.16-.42,0-.58-.23-.48-.69Zm2.33-5.14c-.18.39-.25.81-.21,1.27.18-.18.26-.42.26-.74.11-.21.09-.39-.05-.53Zm-.21,1.48v.48c.07-.21.07-.37,0-.48Zm.21,3.23h.21c-.07-.21-.14-.21-.21,0Zm19.22,23.72l-.26.11-2.01-.95c-.28-.11-.48-.18-.58-.21-.64-.46-1.32-.78-2.06-.95-.28-.25-.58-.41-.9-.48-.32-.14-.34-.41-.05-.79.71-.14,1.34.05,1.91.58.03.11.21.16.53.16l.16-1.75c-.04-.28,0-.55.11-.79,0-2.08.07-4.16.21-6.25-.25-.07-.44,0-.58.19-.14.19-.34.26-.58.19-.18-.03-.42,0-.74.08-.32.09-.51.13-.58.13-.92.18-1.82.37-2.7.58-.14.14-.32.21-.53.21l-.26-.05c-.18-.25-.21-.53-.11-.85.07-.18.12-.37.16-.58.64-1.24,1.25-2.51,1.85-3.81.18-.35.07-.55-.32-.58-.32-.03-.6-.05-.85-.05l-4.77-.05c-.25-.11-.53-.11-.85,0-.6.11-1.16,0-1.69-.32-.18-.28-.14-.58.11-.9.42-.46.71-1.01.85-1.64.28-.42.44-.86.48-1.32l2.59-5.45c0-.21.07-.41.21-.58.39-.78.72-1.59,1.01-2.44.11-.39.35-.62.74-.69,1.66.25,3.23.74,4.71,1.48.78.11,1.41.35,1.91.74-.28.71-.71,1.32-1.27,1.85-.85,1.55-1.82,3.05-2.91,4.5-.18.18-.34.39-.48.64-.64.88-1.24,1.8-1.8,2.75-.18.21-.14.35.11.42h2.65c.46-.85.95-1.73,1.48-2.65,1.8,0,3.58.28,5.35.85-.18.81-.53,1.59-1.06,2.33-.49,1.02-1.02,2.01-1.59,2.97-.21.39-.16.49.16.32l5.24-1.43c.32-.11.51-.18.58-.21l.32-.05c-.28-.56-.67-1.06-1.16-1.48-.04-.32.11-.51.42-.58.25-.03.48-.05.69-.05,1.45.14,2.84.49,4.18,1.06.25-.07.42-.02.53.16.42,0,.81.14,1.16.42.11.64-.02,1.22-.37,1.75-.28.57-.58,1.11-.9,1.64-.04.35-.21.56-.53.64l-2.17-1.96c-.64-.32-1.34-.32-2.12,0l-.58,5.77c.04.53,0,1.04-.11,1.54.03.25,0,.44-.11.58l-.48,5.24c-.07.42-.37.64-.9.64l-.64-.21c-.25-.21-.51-.34-.79-.37Zm-13.18-1.75c-.14,0-.21-.05-.21-.16-.04-.49-.19-.97-.48-1.43-.21-.35-.3-.72-.26-1.11-.07-1.06.53-1.71,1.8-1.96.28-.28.55-.42.79-.42.95-.67,1.96-1.2,3.02-1.59.18-.11.35-.12.53-.05.11-.21.28-.28.53-.21.39.39.32.81-.21,1.27-1.52,2.08-3,4.2-4.45,6.35-.14.11-.35.16-.64.16-.39-.07-.53-.35-.42-.85Zm.9-19.54c-.11,0-.16.09-.16.26.11,0,.16-.09.16-.26Zm1.27-3.23c-.11,0-.18.05-.21.16,0,.28.07.23.21-.16Zm.58-1.48c-.35.32-.55.78-.58,1.38l.58-1.38Zm-.53,3.76s-.05.05-.05.16c.14.07.16.02.05-.16Zm.74,5.08c-.14.04-.21.11-.21.21.25,0,.32-.07.21-.21Zm.11-2.7c-.07.32,0,.3.21-.05.28-.32.28-.48,0-.48-.04.21-.11.39-.21.53Zm.37,1.16c-.11,0-.16.04-.16.11,0,.25.05.21.16-.11Zm1.48-6.72c-.14.04-.21.16-.21.37l.21-.37Zm.26,4.29s-.05.02-.05.05c.04.14.05.12.05-.05Zm.69-.85c-.11,0-.18.05-.21.16-.07.32,0,.26.21-.16Zm2.49-17.1c0,.18.05.28.16.32.11-.21.05-.32-.16-.32Zm.42,6.04l.11.85.05-.53c.07-.25.02-.35-.16-.32Zm1.01-.69c-.11,0-.16.04-.16.11.07.32.12.28.16-.11Zm.58,19.75c-.11.07-.16.18-.16.32.14-.03.19-.14.16-.32Zm.42-.79c-.07,0-.11.05-.11.16-.14.14-.21.3-.21.48.18-.21.28-.42.32-.64Zm.05,7.73l.11.16.05-.9c.03-.21,0-.39-.11-.53l-.05,1.27Zm.42-8.63l-.37.64c.03.18.12.11.26-.21.18-.18.21-.32.11-.42Zm-.21,13.5c.14.35.21.3.21-.16-.04-.18-.11-.12-.21.16Zm1.06-15.25c-.11.14-.18.32-.21.53.28-.18.35-.35.21-.53Zm.16-.64c0,.07-.02.12-.05.16,0,.25.09.16.26-.26-.25-.21-.32-.18-.21.11Zm.32,16.78h.11l.11-1.96c.07-.35.02-.48-.16-.37.03.74.02,1.52-.05,2.33Zm.16-2.59v-.21c.03-.25.03-.18,0,.21Zm.21-8l.16,2.12.05-1.69c-.04-.28.02-.51.16-.69-.28-.07-.41.02-.37.26Zm.69,7.62l.11-1.01c-.14.32-.18.65-.11,1.01Zm1.38-2.75l-.11.9c.11-.21.14-.51.11-.9Zm0-4.82c.11.04.12,0,.05-.11-.04-.21-.05-.18-.05.11Zm2.44-4.29c.14.25.28.34.42.26-.11-.21-.25-.3-.42-.26Zm1.48,10.17c.07-.21.05-.42-.05-.64-.11-.28-.16-.58-.16-.9.07-.95.64-1.45,1.69-1.48.21-.14.46-.19.74-.16.35.57.65,1.18.9,1.85.49.85.93,1.71,1.32,2.59.39.6.25,1.08-.42,1.43-.78.6-1.61,1.13-2.49,1.59-.18-.14-.35-.23-.53-.26l-1.01-4.02Zm3.34-24.73c-.11.04-.16.11-.16.21.07.11.12.04.16-.21Z" style="fill: #a4fbff; stroke-width: 0px;"/>
      <path d="m313.91,42.22l.12-.99c.21-.58.29-1.17.25-1.79.49-1.4.8-2.88.93-4.45-.04-.41.02-.78.18-1.11.08-1.4.27-2.82.56-4.26.04-.7.18-1.34.43-1.91-.04-.29-.04-.53,0-.74.21-.53.33-1.07.37-1.61-.08-1.07.29-1.85,1.11-2.35.33-.25.76-.39,1.3-.43.33-.08.63-.12.9-.12s.57-.02.9-.06l.37-.06c.21-.08.5-.13.89-.15.39-.02.63-.03.71-.03l.8-.12c.25,0,.47-.02.68-.06l1.67-.25c.33-.08.56-.12.68-.12l.25-.06c.49-.12,1.05-.19,1.67-.19.53-.04,1.11-.04,1.73,0l.31-.06c.62,1.03.64,2.16.06,3.4-.25,1.03-.52,2.04-.8,3.03-.12,1.48-.68,2.72-1.67,3.7-.58-.08-1.19.08-1.85.49-1.52.37-3.07.78-4.63,1.23-.78,0-1.4.29-1.85.86-.12,1.77-.45,3.48-.99,5.12-.04.33,0,.62.12.86,1.73-.53,3.44-1.15,5.12-1.85l-.49-1.54c-.29-.58-.27-1.05.06-1.42.86.33,1.69.76,2.47,1.3.7.54,1.34,1.11,1.91,1.73.25.29.41.6.49.93-.58.86-1.3,1.63-2.16,2.28-.12.29-.35.41-.68.37-.33.16-.56.06-.68-.31.16-.33.12-.68-.12-1.05.08-.25.02-.43-.18-.56-.08-.29-.25-.47-.49-.56-.25,0-.45.04-.62.12-2.88.95-5.74,2.02-8.58,3.21-.37.21-.64.31-.8.31-.37-.04-.52-.29-.43-.74Zm.25-20.68l.56-1.48c-.04-.33.02-.62.18-.86.04-.21.12-.39.25-.56l1.11-3.4c1.11-3.05,2.1-6.15,2.96-9.32-.08-.37.04-.7.37-.99.49-.37,1.01-.36,1.54.03.53.39,1.03.67,1.48.83.99.17,1.77.66,2.35,1.48-.33.99-.78,1.96-1.36,2.9l2.22.68c1.36.41,2.63.93,3.83,1.54,1.44.25,2.78.74,4.01,1.48.12.12.37.19.74.19l.06.43c-.66,1.32-1.38,2.63-2.16,3.95-.45.62-.97.6-1.54-.06l-7.84-7.1c-1.52,2.35-3.13,4.65-4.82,6.92-.95,1.28-2.04,2.45-3.27,3.52-.25.25-.43.37-.56.37-.12-.12-.17-.31-.12-.56Zm1.48-1.54c-.21,0-.31.12-.31.37.21-.04.31-.16.31-.37Zm.31,19.39c-.08.04-.12.19-.12.43.29-.12.33-.27.12-.43Zm.49-6.48c-.16.21-.23.45-.18.74.16-.16.23-.41.18-.74Zm.74-14.32l-.49.25c.04.33.21.25.49-.25Zm.68,5.74c.12,0,.16-.14.12-.43l-.12.43Zm6.91,2.84c0,.21-.08.33-.25.37-1.19.45-2.35.97-3.46,1.54l-.86,3.21c.08.29.35.31.8.06,1.32-.33,2.65-.7,4.01-1.11.29-.99.49-2,.62-3.03.12-.58.16-1.17.12-1.79.33-1.19.58-2.41.74-3.64-.78,0-1.54.03-2.28.09-.74.06-1.5.22-2.28.46-.12.17-.18.31-.18.43-.04,1.32-.23,2.61-.56,3.89.49,0,.99-.14,1.48-.43.49-.29,1.01-.43,1.54-.43h.06c.25,0,.41.12.49.37Zm-4.07-21.12c.21,0,.31-.08.31-.25-.21-.04-.31.04-.31.25Zm1.61,9.63c0-.16.08-.29.25-.37.33-.08.66-.06.99.06.25.29.49.41.74.37l2.28.99c.74.45.78,1.01.12,1.67-.86.62-1.75,1.21-2.65,1.79-.33-.25-.56-.58-.68-.99-.58-1.07-.93-2.24-1.05-3.52Zm.12-8.89c.21.21.49.31.86.31-.21-.21-.49-.31-.86-.31Zm1.48,1.11c-.25.12-.35.35-.31.68.21-.25.31-.47.31-.68Zm2.16,21.79c-.04.12-.06.35-.06.68.25-.25.27-.47.06-.68Zm.18-1.05c-.21.17-.27.43-.18.8.21-.25.27-.51.18-.8Zm3.21-15.44s.18.06.43.06l-.43-.06Zm3.95,1.91c.08-.04.12-.1.12-.19-.08-.25-.12-.19-.12.19Zm1.05,6.3c-.04-.21,0-.31.12-.31-.08-.37,0-.7.25-.99.16-.9.43-1.83.8-2.78.29-1.07.68-2.1,1.17-3.09.62,0,1.21-.08,1.79-.25.08,0,.31-.02.68-.06.37-.04.62-.06.74-.06s.35-.02.68-.06h2.1c.33.04.56.06.68.06.25-.12.49-.19.74-.19s.51-.02.8-.06c.37-.12.76-.19,1.17-.19.33-.08.68-.12,1.05-.12s.72-.02,1.05-.06l6.24-.62c1.11-.08,2.24-.12,3.4-.12h.86c.08.17.23.17.43,0,.45.86.21,1.73-.74,2.59l-2.72,2.84c-.25.25-.52.3-.8.15-.29-.14-.43-.36-.43-.65-.29-.53-.52-1.11-.68-1.73-.16-.33-.25-.68-.25-1.05,0-.45-.18-.74-.56-.86-.37,0-.69.04-.96.12-.27.08-.57.14-.9.19-.12,0-.33-.02-.62-.06-1.03.08-2.08.14-3.15.19-.37.12-.8.19-1.3.19l-1.61.06c-.12,0-.39.03-.8.09-.41.06-.66.09-.74.09-.49-.04-.99.02-1.48.19-.37-.04-.7,0-.99.12-.33.82-.49,1.71-.49,2.65-.17.25-.23.6-.19,1.05-.16.33-.29.7-.37,1.11-.21.45-.56.8-1.05,1.05-.62.04-1.19.19-1.73.43-.37-.16-.76-.1-1.17.19-.29.25-.6.37-.93.37l-.12-.43Zm1.85-3.95c-.21.33-.33.7-.37,1.11.25-.29.37-.66.37-1.11Zm.25-.86c-.08,0-.12.05-.12.15s.04.05.12-.15Zm2.47,1.48c-.08,0-.12.1-.12.31.12,0,.16-.1.12-.31Zm2.1,26.86c.16-1.56.23-3.13.19-4.69,0-.21.06-.35.18-.43l.06-3.89c-.08-.95-.06-1.91.06-2.9.12-1.52.1-3.07-.06-4.63-.08-1.19-.12-2.39-.12-3.58-.04-.99-.08-1.98-.12-2.96-.04-.33.02-.56.18-.68.53,0,1.07-.08,1.61-.25.53.08,1.05.12,1.54.12.7.08,1.38.1,2.04.06.49.04,1.03.06,1.61.06.66-.04,1.23,0,1.73.12h3.4l.8.8c.29,2.26.49,4.51.62,6.73l-1.48.49c-2.06.04-4.08.27-6.05.68v5.12c-.04.37,0,.62.12.74.33-.12.7-.14,1.11-.06.29,0,.49-.02.62-.06h.56c.29,0,.62-.02.99-.06.29-.04.62-.06.99-.06l1.73-.06c.7-.04,1.44-.08,2.22-.12.33,0,.75.03,1.27.09.51.06.9.28,1.14.65.21,2.22.27,4.49.18,6.79l-.37,1.23c-.16.37-.41.56-.74.56-1.32,0-2.63.1-3.95.31-.29-.04-.54.02-.74.19-.33-.12-.66-.13-.99-.03-.33.1-.68.15-1.05.15s-.7.02-.99.06l-2.47.25c-.37.04-.58.06-.62.06l-2.04.31c-.29,0-.56.04-.8.12-.37.08-.68.12-.93.12-.54.12-.95.02-1.23-.31.08-.41.02-.76-.19-1.05Zm1.42-.86c-.04.21.02.33.19.37.08-.33.02-.45-.19-.37Zm.06.86c.12,0,.16-.04.12-.12-.08-.29-.12-.25-.12.12Zm1.48-33.09l.19-.56c-.29-.66-.54-1.34-.74-2.04-.33-.7-.47-1.42-.43-2.16-.33-.16-.39-.37-.19-.62,1.93.21,3.72.89,5.37,2.04.29.21.6.33.93.37.08.25.06.47-.06.68-.91,1.19-1.96,2.31-3.15,3.33-.66,0-1.3-.35-1.91-1.05Zm-1.11,26.55c-.04.17,0,.31.12.43.08-1.11,0-2.24-.25-3.4-.04.99,0,1.98.12,2.96Zm3.15,4.94v.25c.21.25.21.17,0-.25Zm.12-17.6l.06.12v-1.36l-.06,1.23Zm.93,3.21h.37c.04-.08.25-.12.62-.12l1.05-.19c.66.08,1.05-.19,1.17-.8.04-1.44.02-2.9-.06-4.38.04-.45-.02-.88-.18-1.3h-3.09c-.04,1.36-.02,2.7.06,4.01-.12.95-.1,1.87.06,2.78Zm.31,15.31l.18.25,4.45-.31c.25-.37.35-.82.31-1.36.25-1.98.33-3.95.25-5.93h-2.96c-.37,0-.76.08-1.17.25-.25.08-.49.09-.74.03-.25-.06-.41.11-.49.52-.12,2.18-.06,4.36.19,6.54Zm5.99-7.29l-.18,3.46c-.04.37,0,.66.12.86.21-1.44.29-2.9.25-4.38-.12,0-.19.02-.19.06Zm1.17,4.38c.12-.12.16-.33.12-.62-.12.17-.16.37-.12.62Zm1.54-4.38c.04.25.19.47.43.68.12-.04.16-.23.12-.56-.17-.29-.35-.33-.56-.12Zm1.11,5.31c-.12.12-.12.31,0,.56v-.56Zm0-3.21c.21.08.27-.12.18-.62-.16.04-.23.25-.18.62Z" style="fill: #ea877d; stroke-width: 0px;"/>
      <g>
        <path d="m1.86,54.53h7.86v1.45H3.58v4.27h5.16v1.47H3.58v4.96h6.33v1.47H1.86v-13.61Z" style="fill: #fff; stroke-width: 0px;"/>
        <path d="m12.63,58.06h1.39l.15,1.45h.06c.97-.95,2.01-1.71,3.38-1.71,2.12,0,3.08,1.37,3.08,3.96v6.39h-1.69v-6.17c0-1.89-.58-2.69-1.91-2.69-1.04,0-1.75.52-2.77,1.54v7.32h-1.69v-10.08Z" style="fill: #fff; stroke-width: 0px;"/>
        <path d="m22.5,58.06h1.76l1.89,5.74c.32.98.63,2.02.95,2.97h.07c.3-.95.63-1.99.93-2.97l1.91-5.74h1.67l-3.58,10.08h-1.97l-3.64-10.08Z" style="fill: #fff; stroke-width: 0px;"/>
        <path d="m33.33,54.89c0-.69.5-1.1,1.17-1.1s1.17.41,1.17,1.1c0,.63-.5,1.1-1.17,1.1s-1.17-.46-1.17-1.1Zm.32,3.18h1.69v10.08h-1.69v-10.08Z" style="fill: #fff; stroke-width: 0px;"/>
        <path d="m38.75,58.06h1.39l.15,1.84h.06c.71-1.28,1.73-2.1,2.86-2.1.45,0,.76.06,1.08.22l-.32,1.49c-.33-.13-.58-.17-.98-.17-.84,0-1.88.59-2.54,2.32v6.48h-1.69v-10.08Z" style="fill: #fff; stroke-width: 0px;"/>
        <path d="m44.99,63.11c0-3.36,2.21-5.31,4.68-5.31s4.68,1.95,4.68,5.31-2.21,5.27-4.68,5.27-4.68-1.93-4.68-5.27Zm7.61,0c0-2.32-1.19-3.9-2.93-3.9s-2.92,1.58-2.92,3.9,1.17,3.86,2.92,3.86,2.93-1.54,2.93-3.86Z" style="fill: #fff; stroke-width: 0px;"/>
        <path d="m56.54,58.04h1.37l.13,1.39h.07c.78-.91,1.69-1.62,2.88-1.62,1.82,0,2.56,1.24,2.56,3.64v6.69h-1.71v-6.5c0-1.63-.37-2.38-1.47-2.38-.78,0-1.41.5-2.14,1.5v7.37h-1.71v-10.1Zm8.77,0h1.19l.13,1.24h.07c.35-.89.87-1.47,1.8-1.47.8,0,1.24.61,1.41,1.6.32-.95.91-1.6,1.76-1.6,1.06,0,1.69.95,1.69,2.71v7.61h-1.47v-7.35c0-1.04-.3-1.52-.8-1.52s-.84.48-1.13,1.39v7.48h-1.24v-7.35c0-.97-.24-1.52-.76-1.52s-.87.48-1.19,1.39v7.48h-1.47v-10.1Z" style="fill: #fff; stroke-width: 0px;"/>
        <path d="m74.81,63.11c0-3.27,2.21-5.31,4.55-5.31,2.56,0,4.01,1.86,4.01,4.74,0,.37-.04.72-.07.97h-6.8c.11,2.15,1.43,3.53,3.34,3.53.98,0,1.78-.3,2.53-.8l.61,1.11c-.89.58-1.97,1.04-3.34,1.04-2.67,0-4.83-1.95-4.83-5.27Zm7.08-.82c0-2.04-.93-3.14-2.51-3.14-1.43,0-2.69,1.15-2.9,3.14h5.4Z" style="fill: #fff; stroke-width: 0px;"/>
        <path d="m85.86,58.06h1.39l.15,1.45h.06c.97-.95,2.01-1.71,3.38-1.71,2.12,0,3.08,1.37,3.08,3.96v6.39h-1.69v-6.17c0-1.89-.58-2.69-1.91-2.69-1.04,0-1.75.52-2.77,1.54v7.32h-1.69v-10.08Z" style="fill: #fff; stroke-width: 0px;"/>
        <path d="m97.5,65.03v-5.59h-1.5v-1.28l1.58-.09.2-2.82h1.41v2.82h2.73v1.37h-2.73v5.63c0,1.24.39,1.95,1.56,1.95.35,0,.82-.13,1.15-.26l.33,1.26c-.58.19-1.24.37-1.86.37-2.15,0-2.88-1.34-2.88-3.36Z" style="fill: #fff; stroke-width: 0px;"/>
        <path d="m103.13,65.53c0-2.19,1.91-3.29,6.2-3.77,0-1.3-.43-2.54-2.08-2.54-1.17,0-2.23.54-3.03,1.08l-.67-1.17c.93-.59,2.36-1.32,3.97-1.32,2.45,0,3.49,1.65,3.49,4.14v6.2h-1.39l-.15-1.21h-.06c-.97.8-2.1,1.45-3.34,1.45-1.69,0-2.95-1.04-2.95-2.86Zm6.2.17v-2.82c-3.4.41-4.55,1.24-4.55,2.54,0,1.15.78,1.62,1.78,1.62s1.78-.46,2.77-1.34Z" style="fill: #fff; stroke-width: 0px;"/>
        <path d="m114.23,66.14v-12.78h1.69v12.89c0,.52.22.72.48.72.09,0,.17,0,.35-.04l.24,1.3c-.24.09-.54.15-.98.15-1.26,0-1.78-.82-1.78-2.25Z" style="fill: #fff; stroke-width: 0px;"/>
        <path d="m123.83,54.53h7.86v1.45h-6.13v4.27h5.16v1.47h-5.16v4.96h6.33v1.47h-8.06v-13.61Z" style="fill: #fff; stroke-width: 0px;"/>
        <path d="m133.67,63.11c0-3.27,2.06-5.31,4.36-5.31,1.19,0,1.95.45,2.84,1.19l-.09-1.75v-3.88h1.69v14.78h-1.37l-.17-1.19h-.04c-.8.78-1.86,1.43-3.06,1.43-2.53,0-4.16-1.91-4.16-5.27Zm7.11,2.47v-5.29c-.85-.76-1.62-1.06-2.45-1.06-1.63,0-2.92,1.56-2.92,3.86,0,2.43,1,3.88,2.79,3.88.93,0,1.75-.46,2.58-1.39Z" style="fill: #fff; stroke-width: 0px;"/>
        <path d="m145.78,64.45v-6.39h1.69v6.18c0,1.88.56,2.67,1.89,2.67,1.04,0,1.76-.5,2.73-1.71v-7.15h1.69v10.08h-1.41l-.13-1.58h-.06c-.95,1.1-1.95,1.82-3.34,1.82-2.12,0-3.06-1.37-3.06-3.94Z" style="fill: #fff; stroke-width: 0px;"/>
        <path d="m156.42,63.11c0-3.36,2.28-5.31,4.87-5.31,1.32,0,2.23.56,2.95,1.19l-.87,1.13c-.59-.54-1.21-.91-2.02-.91-1.82,0-3.16,1.58-3.16,3.9s1.26,3.86,3.12,3.86c.93,0,1.75-.43,2.38-1l.72,1.13c-.89.82-2.04,1.28-3.25,1.28-2.67,0-4.74-1.93-4.74-5.27Z" style="fill: #fff; stroke-width: 0px;"/>
        <path d="m165.79,65.53c0-2.19,1.91-3.29,6.2-3.77,0-1.3-.43-2.54-2.08-2.54-1.17,0-2.23.54-3.03,1.08l-.67-1.17c.93-.59,2.36-1.32,3.97-1.32,2.45,0,3.49,1.65,3.49,4.14v6.2h-1.39l-.15-1.21h-.06c-.97.8-2.1,1.45-3.34,1.45-1.69,0-2.95-1.04-2.95-2.86Zm6.2.17v-2.82c-3.4.41-4.55,1.24-4.55,2.54,0,1.15.78,1.62,1.78,1.62s1.78-.46,2.77-1.34Z" style="fill: #fff; stroke-width: 0px;"/>
        <path d="m176.92,65.03v-5.59h-1.5v-1.28l1.58-.09.2-2.82h1.41v2.82h2.73v1.37h-2.73v5.63c0,1.24.39,1.95,1.56,1.95.35,0,.82-.13,1.15-.26l.33,1.26c-.58.19-1.24.37-1.86.37-2.15,0-2.88-1.34-2.88-3.36Z" style="fill: #fff; stroke-width: 0px;"/>
        <path d="m183.3,54.89c0-.69.5-1.1,1.17-1.1s1.17.41,1.17,1.1c0,.63-.5,1.1-1.17,1.1s-1.17-.46-1.17-1.1Zm.32,3.18h1.69v10.08h-1.69v-10.08Z" style="fill: #fff; stroke-width: 0px;"/>
        <path d="m187.96,63.11c0-3.36,2.21-5.31,4.68-5.31s4.68,1.95,4.68,5.31-2.21,5.27-4.68,5.27-4.68-1.93-4.68-5.27Zm7.61,0c0-2.32-1.19-3.9-2.93-3.9s-2.92,1.58-2.92,3.9,1.17,3.86,2.92,3.86,2.93-1.54,2.93-3.86Z" style="fill: #fff; stroke-width: 0px;"/>
        <path d="m199.98,58.06h1.39l.15,1.45h.06c.97-.95,2.01-1.71,3.38-1.71,2.12,0,3.08,1.37,3.08,3.96v6.39h-1.69v-6.17c0-1.89-.58-2.69-1.91-2.69-1.04,0-1.75.52-2.77,1.54v7.32h-1.69v-10.08Z" style="fill: #fff; stroke-width: 0px;"/>
        <path d="m215.63,54.53h3.42c4.18,0,6.43,2.43,6.43,6.76s-2.25,6.85-6.35,6.85h-3.49v-13.61Zm3.27,12.2c3.21,0,4.79-2.01,4.79-5.44s-1.58-5.37-4.79-5.37h-1.54v10.81h1.54Z" style="fill: #fff; stroke-width: 0px;"/>
        <path d="m227.92,54.89c0-.69.5-1.1,1.17-1.1s1.17.41,1.17,1.1c0,.63-.5,1.1-1.17,1.1s-1.17-.46-1.17-1.1Zm.32,3.18h1.69v10.08h-1.69v-10.08Z" style="fill: #fff; stroke-width: 0px;"/>
        <path d="m232.21,67l.84-1.11c.87.71,1.78,1.19,2.99,1.19,1.34,0,1.99-.71,1.99-1.58,0-1.02-1.19-1.49-2.3-1.91-1.41-.52-3.01-1.21-3.01-2.92,0-1.6,1.28-2.86,3.47-2.86,1.24,0,2.34.52,3.14,1.13l-.82,1.1c-.71-.52-1.41-.89-2.32-.89-1.26,0-1.84.67-1.84,1.45,0,.97,1.1,1.32,2.23,1.75,1.47.56,3.08,1.15,3.08,3.06,0,1.63-1.3,2.99-3.68,2.99-1.43,0-2.8-.59-3.77-1.39Z" style="fill: #fff; stroke-width: 0px;"/>
        <path d="m241.27,63.11c0-3.36,2.28-5.31,4.87-5.31,1.32,0,2.23.56,2.95,1.19l-.87,1.13c-.59-.54-1.21-.91-2.02-.91-1.82,0-3.16,1.58-3.16,3.9s1.26,3.86,3.12,3.86c.93,0,1.75-.43,2.38-1l.72,1.13c-.89.82-2.04,1.28-3.25,1.28-2.67,0-4.74-1.93-4.74-5.27Z" style="fill: #fff; stroke-width: 0px;"/>
        <path d="m250.28,63.11c0-3.36,2.21-5.31,4.68-5.31s4.68,1.95,4.68,5.31-2.21,5.27-4.68,5.27-4.68-1.93-4.68-5.27Zm7.61,0c0-2.32-1.19-3.9-2.93-3.9s-2.92,1.58-2.92,3.9,1.17,3.86,2.92,3.86,2.93-1.54,2.93-3.86Z" style="fill: #fff; stroke-width: 0px;"/>
        <path d="m260.75,58.06h1.76l1.89,5.74c.32.98.63,2.02.95,2.97h.07c.3-.95.63-1.99.93-2.97l1.91-5.74h1.67l-3.58,10.08h-1.97l-3.64-10.08Z" style="fill: #fff; stroke-width: 0px;"/>
        <path d="m271.06,63.11c0-3.27,2.21-5.31,4.55-5.31,2.56,0,4.01,1.86,4.01,4.74,0,.37-.04.72-.07.97h-6.8c.11,2.15,1.43,3.53,3.34,3.53.98,0,1.78-.3,2.53-.8l.61,1.11c-.89.58-1.97,1.04-3.34,1.04-2.67,0-4.83-1.95-4.83-5.27Zm7.08-.82c0-2.04-.93-3.14-2.51-3.14-1.43,0-2.69,1.15-2.9,3.14h5.4Z" style="fill: #fff; stroke-width: 0px;"/>
        <path d="m282.1,58.06h1.39l.15,1.84h.06c.71-1.28,1.73-2.1,2.86-2.1.45,0,.76.06,1.08.22l-.32,1.49c-.33-.13-.58-.17-.98-.17-.84,0-1.88.59-2.54,2.32v6.48h-1.69v-10.08Z" style="fill: #fff; stroke-width: 0px;"/>
        <path d="m288.82,72.29l.33-1.36c.2.07.5.17.76.17,1.15,0,1.88-.93,2.28-2.17l.22-.76-4.05-10.1h1.76l2.06,5.61c.3.87.65,1.91.97,2.82h.09c.28-.91.58-1.93.85-2.82l1.8-5.61h1.65l-3.81,10.92c-.71,1.99-1.75,3.51-3.75,3.51-.48,0-.87-.07-1.19-.2Z" style="fill: #fff; stroke-width: 0px;"/>
        <path d="m303.05,61.35c0-4.4,2.58-7.08,6.04-7.08,1.65,0,2.95.82,3.73,1.69l-.93,1.11c-.71-.76-1.62-1.3-2.79-1.3-2.58,0-4.29,2.12-4.29,5.52s1.63,5.59,4.23,5.59c1.3,0,2.28-.58,3.16-1.52l.95,1.08c-1.08,1.24-2.41,1.95-4.18,1.95-3.38,0-5.92-2.62-5.92-7.04Z" style="fill: #fff; stroke-width: 0px;"/>
        <path d="m314.76,63.11c0-3.27,2.21-5.31,4.55-5.31,2.56,0,4.01,1.86,4.01,4.74,0,.37-.04.72-.07.97h-6.8c.11,2.15,1.43,3.53,3.34,3.53.98,0,1.78-.3,2.53-.8l.61,1.11c-.89.58-1.97,1.04-3.34,1.04-2.67,0-4.83-1.95-4.83-5.27Zm7.08-.82c0-2.04-.93-3.14-2.51-3.14-1.43,0-2.69,1.15-2.9,3.14h5.4Z" style="fill: #fff; stroke-width: 0px;"/>
        <path d="m325.81,58.06h1.39l.15,1.45h.06c.97-.95,2.01-1.71,3.38-1.71,2.12,0,3.08,1.37,3.08,3.96v6.39h-1.69v-6.17c0-1.89-.58-2.69-1.91-2.69-1.04,0-1.75.52-2.77,1.54v7.32h-1.69v-10.08Z" style="fill: #fff; stroke-width: 0px;"/>
        <path d="m337.45,65.03v-5.59h-1.5v-1.28l1.58-.09.2-2.82h1.41v2.82h2.73v1.37h-2.73v5.63c0,1.24.39,1.95,1.56,1.95.35,0,.82-.13,1.15-.26l.33,1.26c-.58.19-1.24.37-1.86.37-2.15,0-2.88-1.34-2.88-3.36Z" style="fill: #fff; stroke-width: 0px;"/>
        <path d="m343.12,63.11c0-3.27,2.21-5.31,4.55-5.31,2.56,0,4.01,1.86,4.01,4.74,0,.37-.04.72-.07.97h-6.8c.11,2.15,1.43,3.53,3.34,3.53.98,0,1.78-.3,2.53-.8l.61,1.11c-.89.58-1.97,1.04-3.34,1.04-2.67,0-4.83-1.95-4.83-5.27Zm7.08-.82c0-2.04-.93-3.14-2.51-3.14-1.43,0-2.69,1.15-2.9,3.14h5.4Z" style="fill: #fff; stroke-width: 0px;"/>
        <path d="m354.17,58.06h1.39l.15,1.84h.06c.71-1.28,1.73-2.1,2.86-2.1.45,0,.76.06,1.08.22l-.32,1.49c-.33-.13-.58-.17-.98-.17-.84,0-1.88.59-2.54,2.32v6.48h-1.69v-10.08Z" style="fill: #fff; stroke-width: 0px;"/>
      </g>
    </g>
  </g>
</svg>